<?xml version="1.0" encoding="UTF-8" standalone="no"?>
<!-- Created with Inkscape (http://www.inkscape.org/) -->

<svg
   width="240mm"
   height="59mm"
   viewBox="0 0 240 59"
   version="1.1"
   id="svg1"
   inkscape:version="1.3.2 (091e20ef0f, 2023-11-25)"
   sodipodi:docname="jole84.svg"
   inkscape:export-filename="jole84.png"
   inkscape:export-xdpi="32.512001"
   inkscape:export-ydpi="32.512001"
   xmlns:inkscape="http://www.inkscape.org/namespaces/inkscape"
   xmlns:sodipodi="http://sodipodi.sourceforge.net/DTD/sodipodi-0.dtd"
   xmlns="http://www.w3.org/2000/svg"
   xmlns:svg="http://www.w3.org/2000/svg">
  <sodipodi:namedview
     id="namedview1"
     pagecolor="#ffffff"
     bordercolor="#000000"
     borderopacity="0.25"
     inkscape:showpageshadow="2"
     inkscape:pageopacity="0.0"
     inkscape:pagecheckerboard="0"
     inkscape:deskcolor="#d1d1d1"
     inkscape:document-units="mm"
     inkscape:zoom="0.73071671"
     inkscape:cx="431.08361"
     inkscape:cy="420.13546"
     inkscape:window-width="1281"
     inkscape:window-height="930"
     inkscape:window-x="0"
     inkscape:window-y="0"
     inkscape:window-maximized="0"
     inkscape:current-layer="svg1"
     inkscape:export-bgcolor="#ffffff00" />
  <defs
     id="defs1" />
  <g
     id="g11"
     transform="matrix(1.1085388,0,0,1.1085388,-295.73199,-467.49085)"
     style="display:none">
    <text
       xml:space="preserve"
       style="font-style:normal;font-variant:normal;font-weight:normal;font-stretch:normal;font-size:50.9635px;font-family:'LHF Convecta BASE';-inkscape-font-specification:'LHF Convecta BASE';letter-spacing:-4.77783px;display:inline;fill:#000000;stroke:#ff8d04;stroke-width:1.50193;stroke-dasharray:none;stroke-opacity:1"
       x="461.63049"
       y="450.9921"
       id="text1"
       transform="matrix(0.96055278,0,-0.17447602,1.0410672,0,0)"
       inkscape:label="text svart"><tspan
         sodipodi:role="line"
         id="tspan1"
         style="font-size:50.9635px;letter-spacing:-4.77783px;stroke:#ff8d04;stroke-width:1.50193;stroke-dasharray:none;stroke-opacity:1"
         x="461.63049"
         y="450.9921">84</tspan></text>
    <text
       xml:space="preserve"
       style="font-style:normal;font-variant:normal;font-weight:normal;font-stretch:normal;font-size:29.846px;font-family:'LHF Convecta BASE';-inkscape-font-specification:'LHF Convecta BASE, Normal';font-variant-ligatures:normal;font-variant-caps:normal;font-variant-numeric:normal;font-variant-east-asian:normal;display:inline;fill:#000000;stroke-width:0.223845"
       x="273.36975"
       y="470.26395"
       id="text7"
       inkscape:label="Jole"><tspan
         sodipodi:role="line"
         id="tspan7"
         style="stroke-width:0.223845"
         x="273.36975"
         y="470.26395">Jole</tspan></text>
  </g>
  <g
     id="g3"
     transform="matrix(1.1085388,0,0,1.1085388,-295.73199,-467.49085)"
     style="display:inline"
     inkscape:label="g3 slinga">
    <path
       d="m 496.33664,420.00629 q -0.50964,-0.66253 -1.73276,-0.66253 -1.27409,0 -2.39529,0.76445 -1.57986,1.32506 -1.57986,3.31263 0,0.40771 0.15289,0.71349 0.45867,0.61156 1.78372,0.61156 2.75203,0 3.72033,-2.80299 0.25482,-0.66253 0.25482,-1.22312 0,-0.25482 -0.20385,-0.71349 z m 15.13616,18.55071 -1.37602,3.87323 q -3.05781,8.56187 -16.41024,8.56187 h -21.25178 q -10.80427,0 -10.80427,-5.30021 0,-1.27409 0.71349,-3.26166 L 463.72,438.557 q 1.5289,-4.3319 4.53575,-6.47236 2.70106,-1.93662 7.49163,-2.75203 -6.26851,-1.57987 -6.26851,-5.40213 0,-1.32505 0.5606,-2.75203 l 1.27409,-3.36359 q 2.90492,-7.59356 15.95157,-7.59356 h 21.25178 q 10.90619,0 10.90619,5.40213 0,1.12119 -0.4077,2.19143 l -1.27409,3.36359 q -2.39529,6.21754 -11.51775,8.15416 4.48478,0.86638 5.55502,2.95588 0.5606,1.01927 0.5606,2.2424 0,1.63083 -0.86638,4.02611 z m -24.20767,-4.48479 q -0.76445,0.66253 -1.32505,2.2424 l -0.9683,2.49721 q -0.25482,0.71349 -0.25482,1.27409 0,1.63083 1.78372,1.63083 2.59914,0 3.66937,-2.90492 l 0.96831,-2.49721 q 0,-0.051 0.20385,-0.66253 0.20386,-0.66252 0.20386,-1.01927 0,-0.40771 -0.20386,-0.5606 -0.4077,-0.71349 -1.78372,-0.71349 -1.27409,0 -2.29336,0.71349 z m 56.5313,-11.67064 -10.80426,11.26294 h 6.62525 z m 11.36486,28.59053 h -21.81238 l 2.95588,-8.05224 h -25.53271 l 3.05781,-8.35801 23.5961,-24.36055 h 32.56568 l -8.51091,23.44321 h 7.23682 l -3.41455,9.27535 h -7.18586 z"
       id="text2"
       style="font-size:50.9635px;font-family:'LHF Convecta BASE';-inkscape-font-specification:'LHF Convecta BASE';letter-spacing:-4.77783px;stroke:#ff8d04;stroke-width:1.50193"
       inkscape:label="text svart"
       transform="matrix(0.96055278,0,-0.17447602,1.0410672,0,0)"
       aria-label="84" />
    <path
       d="m 307.30465,446.38715 -6.50642,18.17621 q -1.19384,3.40244 -3.70091,4.65598 -2.02953,1.04461 -5.99904,1.04461 h -11.87871 q -2.50707,0 -3.7606,-0.41785 -2.08922,-0.7163 -2.08922,-2.68614 0,-1.07445 0.53723,-2.5966 l 1.61168,-4.44705 h 11.72948 l -1.1043,3.07413 q -0.32831,0.89538 -0.0895,1.28338 0.20892,0.388 1.01477,0.388 1.55199,0 2.14891,-1.67138 l 5.99904,-16.80329 z m -4.71562,19.63866 3.73075,-10.26702 q 0.92523,-2.56676 3.04429,-3.52183 1.64153,-0.74615 4.74552,-0.74615 h 9.16272 q 5.01413,0 5.01413,2.32799 0,0.80584 -0.41785,1.93999 l -3.73075,10.26702 q -0.95507,2.59661 -2.9846,3.55168 -1.52214,0.68646 -4.71567,0.68646 h -9.16272 q -3.52183,0 -4.50674,-0.92523 -0.56708,-0.50738 -0.56708,-1.46245 0,-0.83569 0.388,-1.85046 z m 12.89347,-9.49102 -3.16367,8.71503 q -0.0895,0.29846 -0.0895,0.50738 0,0.80584 0.92522,0.86553 1.25354,0.0895 1.79076,-1.37291 l 3.19353,-8.71503 q 0.11938,-0.32831 0.11938,-0.56708 0,-0.86553 -0.89538,-0.86553 -1.34307,0 -1.8803,1.43261 z m 9.52088,13.72916 8.68518,-23.8768 h 9.3418 l -8.68519,23.8768 z m 36.02408,-7.40181 -1.16399,3.16367 q -0.95507,2.59661 -3.01445,3.52183 -1.61168,0.71631 -4.74551,0.71631 h -9.16272 q -3.49199,0 -4.50675,-0.89538 -0.50738,-0.47754 -0.50738,-1.43261 0,-0.89538 0.388,-1.91015 l 3.73075,-10.26702 q 0.92522,-2.56676 2.9846,-3.52183 1.64153,-0.74615 4.74551,-0.74615 h 9.16272 q 3.40245,0 4.50675,0.95507 0.53723,0.44769 0.53723,1.43261 0,0.86554 -0.388,1.91015 l -2.05937,5.64089 h -12.14733 l -1.40276,3.82029 q -0.11938,0.3283 -0.11938,0.68646 0,0.68645 0.95507,0.68645 1.31322,0 1.8206,-1.37291 l 0.86554,-2.38768 z m -9.10303,-7.52119 q -0.50738,0.3283 -0.80584,1.19384 l -0.53723,1.4923 h 2.83537 l 0.53723,-1.4923 q 0.14923,-0.44769 0.14923,-0.74615 0,-0.80585 -1.04461,-0.80585 -0.74615,0 -1.13415,0.35816 z"
       id="text3"
       style="font-size:29.846px;font-family:'LHF Convecta BASE';-inkscape-font-specification:'LHF Convecta BASE, Normal';stroke-width:0.223845"
       inkscape:label="Jole"
       aria-label="Jole" />
  </g>
</svg>
