<?xml version="1.0" encoding="UTF-8" standalone="no"?>
<!-- Created with Inkscape (http://www.inkscape.org/) -->

<svg
   width="240mm"
   height="240mm"
   viewBox="0 0 240 240"
   version="1.1"
   id="svg1"
   inkscape:version="1.3.2 (091e20ef0f, 2023-11-25)"
   sodipodi:docname="nav-app.svg"
   inkscape:export-filename="nav-app.png"
   inkscape:export-xdpi="32.512001"
   inkscape:export-ydpi="32.512001"
   xmlns:inkscape="http://www.inkscape.org/namespaces/inkscape"
   xmlns:sodipodi="http://sodipodi.sourceforge.net/DTD/sodipodi-0.dtd"
   xmlns="http://www.w3.org/2000/svg"
   xmlns:svg="http://www.w3.org/2000/svg">
  <sodipodi:namedview
     id="namedview1"
     pagecolor="#ffffff"
     bordercolor="#000000"
     borderopacity="0.25"
     inkscape:showpageshadow="2"
     inkscape:pageopacity="0.0"
     inkscape:pagecheckerboard="0"
     inkscape:deskcolor="#d1d1d1"
     inkscape:document-units="mm"
     inkscape:zoom="0.51669474"
     inkscape:cx="443.20173"
     inkscape:cy="482.87699"
     inkscape:window-width="1281"
     inkscape:window-height="930"
     inkscape:window-x="1258"
     inkscape:window-y="439"
     inkscape:window-maximized="0"
     inkscape:current-layer="layer1"
     inkscape:export-bgcolor="#ffffff00" />
  <defs
     id="defs1" />
  <g
     inkscape:label="Lager 1"
     inkscape:groupmode="layer"
     id="layer1"
     style="display:inline"
     transform="scale(0.5)">
    <g
       id="g15"
       style="display:none">
      <circle
         style="display:inline;fill:#c83737;stroke-width:0.893334"
         id="path11"
         cy="240"
         cx="240"
         r="240"
         inkscape:label="cirkel" />
      <g
         id="g11"
         transform="matrix(0.55633457,0,0,0.55633457,207.23879,211.6083)">
        <text
           xml:space="preserve"
           style="font-style:normal;font-variant:normal;font-weight:normal;font-stretch:normal;font-size:50.9635px;font-family:'LHF Convecta BASE';-inkscape-font-specification:'LHF Convecta BASE';letter-spacing:-4.77783px;display:inline;fill:#000000;stroke:#ff8d04;stroke-width:1.50193;stroke-dasharray:none;stroke-opacity:1"
           x="461.63049"
           y="450.9921"
           id="text1"
           transform="matrix(0.96055278,0,-0.17447602,1.0410672,0,0)"
           inkscape:label="text svart"><tspan
             sodipodi:role="line"
             id="tspan1"
             style="font-size:50.9635px;letter-spacing:-4.77783px;stroke:#ff8d04;stroke-width:1.50193;stroke-dasharray:none;stroke-opacity:1"
             x="461.63049"
             y="450.9921">84</tspan></text>
        <text
           xml:space="preserve"
           style="font-style:normal;font-variant:normal;font-weight:normal;font-stretch:normal;font-size:29.846px;font-family:'LHF Convecta BASE';-inkscape-font-specification:'LHF Convecta BASE, Normal';font-variant-ligatures:normal;font-variant-caps:normal;font-variant-numeric:normal;font-variant-east-asian:normal;display:inline;fill:#000000;stroke-width:0.223845"
           x="273.36975"
           y="470.26395"
           id="text7"
           inkscape:label="Jole"><tspan
             sodipodi:role="line"
             id="tspan7"
             style="stroke-width:0.223845"
             x="273.36975"
             y="470.26395">Jole</tspan></text>
      </g>
      <text
         xml:space="preserve"
         style="font-style:normal;font-variant:normal;font-weight:normal;font-stretch:normal;font-size:166.946px;font-family:'LHF Convecta BASE';-inkscape-font-specification:'LHF Convecta BASE, Normal';font-variant-ligatures:normal;font-variant-caps:normal;font-variant-numeric:normal;font-variant-east-asian:normal;display:inline;fill:#000000;stroke-width:1.25209"
         x="26.199841"
         y="197.00383"
         id="text14"
         inkscape:label="Nav-app Lobster"
         transform="matrix(0.94915797,-0.30991938,0.30875023,0.95275217,0,0)"><tspan
           sodipodi:role="line"
           id="tspan13"
           x="26.199841"
           y="197.00383"
           dy="83.373566"
           style="font-style:normal;font-variant:normal;font-weight:normal;font-stretch:normal;font-family:Lobster;-inkscape-font-specification:Lobster;stroke-width:1.25209">Nav-</tspan><tspan
           sodipodi:role="line"
           id="tspan14"
           x="26.199841"
           y="411.3038"
           style="font-style:normal;font-variant:normal;font-weight:normal;font-stretch:normal;font-family:Lobster;-inkscape-font-specification:Lobster;stroke-width:1.25209">app</tspan></text>
    </g>
    <text
       xml:space="preserve"
       style="font-style:normal;font-variant:normal;font-weight:normal;font-stretch:normal;font-size:105.186px;font-family:'LHF Convecta BASE';-inkscape-font-specification:'LHF Convecta BASE, Normal';font-variant-ligatures:normal;font-variant-caps:normal;font-variant-numeric:normal;font-variant-east-asian:normal;display:none;fill:#000000;stroke-width:0.788893"
       x="8.2336445"
       y="254.42819"
       id="text5"
       inkscape:label="Nav-app convecta"
       transform="rotate(-18.019114)"><tspan
         sodipodi:role="line"
         id="tspan3"
         x="0"
         y="0"
         dy="29.483868"
         style="stroke-width:0.788893">Nav-</tspan><tspan
         sodipodi:role="line"
         id="tspan4"
         x="0"
         y="0"
         style="stroke-width:0.788893">app</tspan></text>
    <g
       id="g19"
       inkscape:label="slinga">
      <path
         id="circle16"
         style="display:inline;fill:#c83737;stroke-width:0.893334"
         inkscape:label="cirkel"
         d="M 480,240 A 240,240 0 0 1 240,480 240,240 0 0 1 0,240 240,240 0 0 1 240,0 240,240 0 0 1 480,240 Z" />
      <g
         id="g17"
         transform="matrix(0.55633457,0,0,0.55633457,207.23879,211.6083)">
        <path
           d="m 496.33664,420.00629 q -0.50964,-0.66253 -1.73276,-0.66253 -1.27409,0 -2.39529,0.76445 -1.57986,1.32506 -1.57986,3.31263 0,0.40771 0.15289,0.71349 0.45867,0.61156 1.78372,0.61156 2.75203,0 3.72033,-2.80299 0.25482,-0.66253 0.25482,-1.22312 0,-0.25482 -0.20385,-0.71349 z m 15.13616,18.55071 -1.37602,3.87323 q -3.05781,8.56187 -16.41024,8.56187 h -21.25178 q -10.80427,0 -10.80427,-5.30021 0,-1.27409 0.71349,-3.26166 L 463.72,438.557 q 1.5289,-4.3319 4.53575,-6.47236 2.70106,-1.93662 7.49163,-2.75203 -6.26851,-1.57987 -6.26851,-5.40213 0,-1.32505 0.5606,-2.75203 l 1.27409,-3.36359 q 2.90492,-7.59356 15.95157,-7.59356 h 21.25178 q 10.90619,0 10.90619,5.40213 0,1.12119 -0.4077,2.19143 l -1.27409,3.36359 q -2.39529,6.21754 -11.51775,8.15416 4.48478,0.86638 5.55502,2.95588 0.5606,1.01927 0.5606,2.2424 0,1.63083 -0.86638,4.02611 z m -24.20767,-4.48479 q -0.76445,0.66253 -1.32505,2.2424 l -0.9683,2.49721 q -0.25482,0.71349 -0.25482,1.27409 0,1.63083 1.78372,1.63083 2.59914,0 3.66937,-2.90492 l 0.96831,-2.49721 q 0,-0.051 0.20385,-0.66253 0.20386,-0.66252 0.20386,-1.01927 0,-0.40771 -0.20386,-0.5606 -0.4077,-0.71349 -1.78372,-0.71349 -1.27409,0 -2.29336,0.71349 z m 56.5313,-11.67064 -10.80426,11.26294 h 6.62525 z m 11.36486,28.59053 h -21.81238 l 2.95588,-8.05224 h -25.53271 l 3.05781,-8.35801 23.5961,-24.36055 h 32.56568 l -8.51091,23.44321 h 7.23682 l -3.41455,9.27535 h -7.18586 z"
           id="text16"
           style="font-size:50.9635px;font-family:'LHF Convecta BASE';-inkscape-font-specification:'LHF Convecta BASE';letter-spacing:-4.77783px;stroke:#ff8d04;stroke-width:1.50193"
           inkscape:label="text svart"
           transform="matrix(0.96055278,0,-0.17447602,1.0410672,0,0)"
           aria-label="84" />
        <path
           d="m 307.30465,446.38715 -6.50642,18.17621 q -1.19384,3.40244 -3.70091,4.65598 -2.02953,1.04461 -5.99904,1.04461 h -11.87871 q -2.50707,0 -3.7606,-0.41785 -2.08922,-0.7163 -2.08922,-2.68614 0,-1.07445 0.53723,-2.5966 l 1.61168,-4.44705 h 11.72948 l -1.1043,3.07413 q -0.32831,0.89538 -0.0895,1.28338 0.20892,0.388 1.01477,0.388 1.55199,0 2.14891,-1.67138 l 5.99904,-16.80329 z m -4.71562,19.63866 3.73075,-10.26702 q 0.92523,-2.56676 3.04429,-3.52183 1.64153,-0.74615 4.74552,-0.74615 h 9.16272 q 5.01413,0 5.01413,2.32799 0,0.80584 -0.41785,1.93999 l -3.73075,10.26702 q -0.95507,2.59661 -2.9846,3.55168 -1.52214,0.68646 -4.71567,0.68646 h -9.16272 q -3.52183,0 -4.50674,-0.92523 -0.56708,-0.50738 -0.56708,-1.46245 0,-0.83569 0.388,-1.85046 z m 12.89347,-9.49102 -3.16367,8.71503 q -0.0895,0.29846 -0.0895,0.50738 0,0.80584 0.92522,0.86553 1.25354,0.0895 1.79076,-1.37291 l 3.19353,-8.71503 q 0.11938,-0.32831 0.11938,-0.56708 0,-0.86553 -0.89538,-0.86553 -1.34307,0 -1.8803,1.43261 z m 9.52088,13.72916 8.68518,-23.8768 h 9.3418 l -8.68519,23.8768 z m 36.02408,-7.40181 -1.16399,3.16367 q -0.95507,2.59661 -3.01445,3.52183 -1.61168,0.71631 -4.74551,0.71631 h -9.16272 q -3.49199,0 -4.50675,-0.89538 -0.50738,-0.47754 -0.50738,-1.43261 0,-0.89538 0.388,-1.91015 l 3.73075,-10.26702 q 0.92522,-2.56676 2.9846,-3.52183 1.64153,-0.74615 4.74551,-0.74615 h 9.16272 q 3.40245,0 4.50675,0.95507 0.53723,0.44769 0.53723,1.43261 0,0.86554 -0.388,1.91015 l -2.05937,5.64089 h -12.14733 l -1.40276,3.82029 q -0.11938,0.3283 -0.11938,0.68646 0,0.68645 0.95507,0.68645 1.31322,0 1.8206,-1.37291 l 0.86554,-2.38768 z m -9.10303,-7.52119 q -0.50738,0.3283 -0.80584,1.19384 l -0.53723,1.4923 h 2.83537 l 0.53723,-1.4923 q 0.14923,-0.44769 0.14923,-0.74615 0,-0.80585 -1.04461,-0.80585 -0.74615,0 -1.13415,0.35816 z"
           id="text17"
           style="font-size:29.846px;font-family:'LHF Convecta BASE';-inkscape-font-specification:'LHF Convecta BASE, Normal';stroke-width:0.223845"
           inkscape:label="Jole"
           aria-label="Jole" />
      </g>
      <g
         id="text19"
         style="font-size:166.946px;font-family:'LHF Convecta BASE';-inkscape-font-specification:'LHF Convecta BASE, Normal';stroke-width:1.25209"
         inkscape:label="Nav-app Lobster"
         transform="matrix(0.94915797,-0.30991938,0.30875023,0.95275217,0,0)"
         aria-label="Nav-&#10;app">
        <path
           style="font-family:Lobster;-inkscape-font-specification:Lobster"
           d="m 66.767718,166.01939 q -11.352328,4.0067 -17.362384,12.68789 -5.84311,8.51425 -5.84311,20.70131 0,5.34227 1.168622,9.84981 1.168622,4.3406 3.33892,7.17868 -10.684544,0 -15.859869,-4.3406 -5.00838,-4.50754 -5.00838,-13.68957 0,-11.68622 6.844786,-21.70298 6.844785,-10.18371 18.531005,-16.19376 11.68622,-6.01006 25.375792,-6.01006 3.839758,0 6.67784,0.50084 2.838082,0.50084 6.510894,1.83641 l 20.033516,89.31611 18.69796,-90.65168 h 16.19376 L 118.85487,280.3774 H 95.816322 L 76.450586,197.57218 57.418742,280.3774 h -15.85987 z m 90.985452,115.35968 q -9.51593,0 -15.85987,-6.51089 -6.34395,-6.5109 -6.34395,-20.36741 0,-12.35401 4.84143,-25.87663 5.00838,-13.68958 14.69125,-23.03855 9.84981,-9.51592 23.37244,-9.51592 6.84479,0 10.18371,2.33724 3.33892,2.33724 3.33892,6.177 v 1.16862 l 1.8364,-8.84813 h 24.04023 l -12.02012,56.76164 q -0.66778,2.50419 -0.66778,5.34227 0,7.17868 6.84479,7.17868 4.67448,0 8.0134,-4.3406 3.50587,-4.3406 5.50922,-11.35233 h 7.01173 q -6.177,18.03017 -15.35903,24.54106 -9.01508,6.34395 -18.19711,6.34395 -7.01173,0 -11.35233,-3.83976 -4.17365,-4.0067 -5.00838,-11.51927 -4.84143,6.84479 -10.85149,11.18538 -5.84311,4.17365 -14.02346,4.17365 z m 10.85149,-16.19376 q 4.17365,0 8.18035,-3.83976 4.17365,-4.0067 5.67616,-10.85149 l 8.01341,-37.72979 q 0,-2.1703 -1.66946,-4.17365 -1.66946,-2.1703 -5.17532,-2.1703 -6.67784,0 -12.02012,7.84646 -5.34227,7.67952 -8.3473,18.69795 -3.00502,10.85149 -3.00502,19.19879 0,8.3473 2.33724,10.68455 2.50419,2.33724 6.01006,2.33724 z m 75.96058,16.19376 q -9.68287,0 -15.19208,-4.84143 -5.34228,-5.00838 -5.34228,-14.8582 0,-4.0067 0.83473,-8.0134 l 12.02012,-56.76164 h 24.04022 l -12.02011,56.76164 q -0.83473,4.17365 -0.83473,6.01005 0,5.50922 5.67616,5.50922 7.67952,0 14.19041,-9.68287 6.67784,-9.68287 10.68455,-23.03855 4.0067,-13.35568 4.0067,-23.03854 -0.33389,0.83473 -2.1703,1.33556 -1.8364,0.3339 -3.17197,0.3339 -2.83808,0 -4.50754,-2.67114 -1.50252,-2.67114 -1.50252,-5.84311 0,-4.0067 2.50419,-6.51089 2.67114,-2.50419 7.84646,-2.50419 5.50922,0 8.01341,4.17365 2.50419,4.0067 2.50419,10.35065 0,15.02514 -5.17532,32.22058 -5.17533,17.02849 -15.85987,29.0486 -10.68455,12.02011 -26.54442,12.02011 z m 56.26073,-51.25242 h 33.3892 l -2.83808,13.18873 h -33.55615 z"
           id="path19" />
        <path
           style="font-family:Lobster;-inkscape-font-specification:Lobster"
           d="m 46.23336,412.30547 q -9.515922,0 -15.859869,-6.51089 -6.343948,-6.5109 -6.343948,-20.36742 0,-12.354 4.841434,-25.87663 5.00838,-13.68957 14.691247,-23.03854 9.849814,-9.51593 23.37244,-9.51593 6.844786,0 10.183706,2.33725 3.33892,2.33724 3.33892,6.177 v 1.16862 l 1.836406,-8.84814 h 24.040224 l -12.020112,56.76164 q -0.667784,2.50419 -0.667784,5.34228 0,7.17867 6.844786,7.17867 4.67449,0 8.01341,-4.34059 3.50586,-4.3406 5.50922,-11.35233 h 7.01173 q -6.177,18.03017 -15.35903,24.54106 -9.015088,6.34395 -18.197118,6.34395 -7.011732,0 -11.352328,-3.83976 -4.17365,-4.0067 -5.00838,-11.51927 -4.841434,6.84478 -10.85149,11.18538 -5.84311,4.17365 -14.023464,4.17365 z m 10.85149,-16.19376 q 4.17365,0 8.180354,-3.83976 4.17365,-4.0067 5.676164,-10.85149 l 8.013408,-37.7298 q 0,-2.17029 -1.66946,-4.17365 -1.66946,-2.17029 -5.175326,-2.17029 -6.67784,0 -12.020112,7.84646 -5.342272,7.67951 -8.3473,18.69795 -3.005028,10.85149 -3.005028,19.19879 0,8.3473 2.337244,10.68454 2.50419,2.33725 6.010056,2.33725 z m 69.61665,-74.45792 h 24.04022 l -2.67114,12.52095 q 8.3473,-7.17868 19.53269,-7.17868 9.34897,0 14.85819,6.17701 5.50922,6.177 5.50922,20.20046 0,13.18874 -3.83976,26.71136 -3.83976,13.35568 -13.02179,22.8716 -9.18203,9.34898 -24.20717,9.34898 -10.68454,0 -14.19041,-6.01006 l -8.68119,40.73483 -25.208847,6.01005 z m 15.02514,76.12738 q 8.0134,0 13.18873,-7.51257 5.34227,-7.51257 7.67952,-17.86322 2.50419,-10.5176 2.50419,-19.53269 0,-13.85651 -8.3473,-13.85651 -3.00503,0 -6.17701,2.17029 -3.00502,2.1703 -5.34227,6.01006 l -9.84981,46.74488 q 1.33557,3.83976 6.34395,3.83976 z m 63.10565,-76.12738 h 24.04022 l -2.67114,12.52095 q 8.3473,-7.17868 19.53269,-7.17868 9.34897,0 14.85819,6.17701 5.50922,6.177 5.50922,20.20046 0,13.18874 -3.83976,26.71136 -3.83976,13.35568 -13.02179,22.8716 -9.18203,9.34898 -24.20717,9.34898 -10.68454,0 -14.19041,-6.01006 l -8.68119,40.73483 -25.20885,6.01005 z m 15.02514,76.12738 q 8.0134,0 13.18873,-7.51257 5.34227,-7.51257 7.67952,-17.86322 2.50419,-10.5176 2.50419,-19.53269 0,-13.85651 -8.3473,-13.85651 -3.00503,0 -6.17701,2.17029 -3.00502,2.1703 -5.34227,6.01006 l -9.84981,46.74488 q 1.33557,3.83976 6.34395,3.83976 z"
           id="path20" />
      </g>
    </g>
  </g>
</svg>
